<mxfile host="app.diagrams.net" modified="2024-06-11T06:09:50.213Z" agent="Mozilla/5.0 (Windows NT 10.0; Win64; x64) AppleWebKit/537.36 (KHTML, like Gecko) Chrome/125.0.0.0 Safari/537.36 Edg/125.0.0.0" version="24.5.1" etag="z-HxXooVbgPPAdYN1VBt" type="github">
  <diagram name="Side-1" id="3inkdvTpjRp-ix9CVGbi">
    <mxGraphModel>
      <root>
        <mxCell id="0" />
        <mxCell id="1" parent="0" />
      </root>
    </mxGraphModel>
  </diagram>
</mxfile>
